<?xml version="1.0" standalone="no"?>
<!DOCTYPE svg PUBLIC "-//W3C//DTD SVG 20010904//EN"
 "http://www.w3.org/TR/2001/REC-SVG-20010904/DTD/svg10.dtd">
<svg version="1.0" xmlns="http://www.w3.org/2000/svg"
 width="3575.000000pt" height="1400.000000pt" viewBox="0 0 3575.000000 1400.000000"
 preserveAspectRatio="xMidYMid meet">

<g transform="translate(0.000000,1400.000000) scale(0.100000,-0.100000)"
fill="#000000" stroke="none">
<path d="M2348 13592 l-1998 -2 0 -1960 0 -1960 1967 0 1968 0 -1365 -1366
-1365 -1366 1387 -1382 1387 -1382 1378 1378 c758 758 1378 1383 1378 1388 0
5 -615 625 -1367 1378 l-1368 1367 -2 1955 -3 1955 -1997 -3z"/>
<path d="M9603 6583 c3 -1479 5 -1682 20 -1788 49 -362 122 -615 249 -869 272
-546 708 -861 1353 -978 114 -21 154 -22 840 -26 794 -4 887 0 1105 50 389 88
684 247 926 500 324 338 517 821 573 1438 7 75 11 676 11 1728 l0 1612 -705 0
-705 0 0 -1457 c0 -808 -5 -1515 -10 -1586 -17 -235 -63 -433 -131 -569 -16
-32 -29 -62 -29 -67 0 -16 -71 -111 -135 -179 -102 -109 -218 -177 -390 -228
-114 -34 -424 -55 -610 -43 -411 28 -696 224 -835 572 -35 88 -113 384 -137
522 -14 79 -17 274 -20 1563 l-4 1472 -685 0 -685 0 4 -1667z"/>
<path d="M18005 8223 c-422 -26 -777 -113 -1090 -268 -277 -137 -481 -282
-691 -490 -228 -227 -350 -398 -489 -688 -97 -203 -195 -501 -215 -657 -5 -47
-17 -116 -25 -155 -33 -166 -28 -641 10 -898 110 -736 502 -1345 1110 -1725
347 -217 695 -338 1145 -398 169 -23 647 -26 810 -6 500 63 919 229 1310 521
267 199 489 464 655 783 58 113 145 315 145 338 0 7 -260 10 -729 10 -670 0
-729 -1 -735 -17 -17 -44 -105 -160 -170 -226 -233 -232 -557 -345 -932 -323
-512 29 -895 270 -1101 693 -34 72 -38 86 -41 181 l-4 102 1920 0 1920 0 6 23
c3 12 6 36 6 53 0 17 7 51 15 74 12 34 15 104 15 369 0 179 -5 378 -10 441
-38 425 -175 820 -405 1165 -330 496 -866 866 -1468 1015 -285 70 -658 102
-962 83z m495 -1128 c244 -54 408 -137 564 -285 127 -121 215 -263 269 -436
25 -79 57 -228 57 -265 0 -19 -30 -19 -1210 -19 l-1210 0 0 113 c0 105 2 117
33 188 171 390 508 640 962 714 119 19 428 13 535 -10z"/>
<path d="M27720 7855 l0 -355 750 0 750 0 0 355 0 355 -750 0 -750 0 0 -355z"/>
<path d="M30136 8198 c4 -7 397 -593 873 -1303 476 -709 865 -1299 865 -1310
0 -11 -389 -600 -865 -1310 -476 -710 -869 -1296 -873 -1302 -6 -10 148 -13
757 -13 l765 0 367 573 c202 314 384 595 405 622 20 28 106 157 190 288 84
130 156 237 159 237 3 0 256 -386 561 -856 305 -471 559 -858 565 -860 5 -2
348 -3 761 -2 l752 3 -875 1305 c-482 718 -876 1310 -876 1315 0 6 394 597
876 1315 l875 1305 -752 3 c-413 1 -756 0 -761 -2 -6 -2 -260 -387 -565 -855
-305 -468 -558 -851 -561 -851 -3 0 -79 113 -169 251 -90 138 -168 256 -175
262 -6 7 -183 279 -394 605 l-383 592 -765 0 c-609 0 -763 -3 -757 -12z"/>
<path d="M24680 7615 l0 -566 48 -20 c186 -79 350 -187 483 -319 149 -147 242
-289 304 -462 89 -251 93 -535 8 -771 -61 -171 -172 -347 -301 -476 -124 -123
-310 -249 -464 -312 l-78 -33 0 -568 c0 -415 3 -568 11 -568 38 0 268 60 404
105 528 176 964 470 1288 870 228 282 387 623 453 972 32 171 43 424 25 594
-74 709 -501 1345 -1173 1748 -121 72 -372 191 -503 239 -164 59 -435 132
-491 132 -12 0 -14 -81 -14 -565z"/>
<path d="M27720 4960 l0 -2000 750 0 750 0 0 2000 0 2000 -750 0 -750 0 0
-2000z"/>
<path d="M350 2210 l0 -1960 2000 0 2000 0 0 1948 c0 1502 -3 1951 -12 1960
-9 9 -467 12 -2000 12 l-1988 0 0 -1960z"/>
</g>
</svg>
