<?xml version="1.0" encoding="utf-8"?>
<!-- Generator: Adobe Illustrator 16.0.0, SVG Export Plug-In . SVG Version: 6.00 Build 0)  -->
<!DOCTYPE svg PUBLIC "-//W3C//DTD SVG 1.1//EN" "http://www.w3.org/Graphics/SVG/1.1/DTD/svg11.dtd">
<svg version="1.1" id="Layer_1" xmlns="http://www.w3.org/2000/svg" xmlns:xlink="http://www.w3.org/1999/xlink" x="0px" y="0px"
	 width="400px" height="400px" viewBox="0 0 400 400" enable-background="new 0 0 400 400" xml:space="preserve">
<g>
	<rect x="50" y="13" fill="#0000ED" width="113" height="110"/>
	<polygon fill="#F4F4F4" points="245.938,123 164.156,123 251.979,13 339.8,13 	"/>
	
		<rect x="108.116" y="145.12" transform="matrix(0.7071 -0.7071 0.7071 0.7071 -93.9466 174.476)" fill="#FF0000" width="111.047" height="111.045"/>
	<rect x="50" y="280" fill="#333333" width="113" height="110"/>
	<polygon fill="#00FF00" points="350.5,390 245.259,390 163.639,280 275.229,280 	"/>
	<polygon opacity="0.3" fill="#E01F22" points="163,122.309 163.229,122.122 84.912,200.643 163.123,279.164 163,278.978 	"/>
	<polygon fill="#0000FF" points="163,11.652 163,13 50,13 50,123 53.492,123 	"/>
	<polygon opacity="0.2" fill="#66BA44" points="350.5,390 245.259,390 163.639,279.287 257.069,334.645 	"/>
	<polygon opacity="0.5" fill="#282828" points="163,390 52.592,390 107.795,334.901 163,279.807 	"/>
	<polygon fill="#F9F9F9" points="251.979,67.494 164.156,123.672 251.979,13 339.8,13 	"/>
</g>
</svg>
